<?xml version="1.0" encoding="utf-8"?>
<!-- Generator: Adobe Illustrator 22.0.1, SVG Export Plug-In . SVG Version: 6.00 Build 0)  -->
<svg version="1.1" id="Layer_1" xmlns="http://www.w3.org/2000/svg" xmlns:xlink="http://www.w3.org/1999/xlink" x="0px" y="0px"
	 viewBox="0 0 24 24" style="enable-background:new 0 0 24 24;" xml:space="preserve">
<style type="text/css">
	.st0{fill:none;}
	.st1{fill:#FC3A3A;}
</style>
<path class="st0" d="M0,0h24v24H0V0z"/>
<path class="st1" d="M16.5,3c-1.7,0-3.4,0.8-4.5,2.1C10.9,3.8,9.2,3,7.5,3C4.4,3,2,5.4,2,8.5c0,3.8,3.4,6.9,8.6,11.5l1.4,1.3
	l1.4-1.3c5.2-4.7,8.6-7.8,8.6-11.5C22,5.4,19.6,3,16.5,3z M12.1,18.5L12,18.6l-0.1-0.1C7.1,14.2,4,11.4,4,8.5C4,6.5,5.5,5,7.5,5
	c1.5,0,3,1,3.6,2.4h1.9C13.5,6,15,5,16.5,5c2,0,3.5,1.5,3.5,3.5C20,11.4,16.9,14.2,12.1,18.5z"/>
<ellipse class="st1" cx="12" cy="11.6" rx="7.4" ry="6.4"/>
<ellipse class="st1" cx="6.8" cy="8.2" rx="3.9" ry="3.7"/>
<ellipse class="st1" cx="16.7" cy="8.3" rx="3.9" ry="3.7"/>
<ellipse class="st1" cx="12" cy="15.1" rx="3.9" ry="3.7"/>
</svg>
