<svg id="Layer_1" data-name="Layer 1" xmlns="http://www.w3.org/2000/svg" viewBox="0 0 56.26 54.79"><defs><style>.cls-1{fill:#2eb79d;}.cls-2{fill:#fff;}</style></defs><title>logo1</title><rect class="cls-1" width="56.26" height="54.79" rx="6.66"/><ellipse class="cls-2" cx="93.2" cy="74.26" rx="4.13" ry="5.38" transform="translate(-85.16 -31.25) rotate(-14.23)"/><ellipse class="cls-2" cx="102.73" cy="74.26" rx="5.38" ry="4.13" transform="translate(-71.12 90.16) rotate(-70.66)"/><ellipse class="cls-2" cx="84.75" cy="78.51" rx="4.13" ry="5.38" transform="translate(-100.09 11.83) rotate(-37.72)"/><ellipse class="cls-2" cx="111.34" cy="78.87" rx="5.38" ry="4.13" transform="translate(-91.06 54.44) rotate(-48.88)"/><path class="cls-2" d="M110.44,90.79c-1.9,18.49-7,6.55-12.57,6.76-5,.2-9.87,11.81-12.51-6.76C84.46,84.46,91,79.22,97.9,79.22S111.1,84.43,110.44,90.79Z" transform="translate(-69.77 -56.44)"/><rect class="cls-1" x="26.49" y="28.91" width="3.26" height="9.82"/><rect class="cls-1" x="96.25" y="85.35" width="3.26" height="9.82" transform="translate(118.37 -64.07) rotate(90)"/></svg>